<svg width="200" height="164" viewBox="0 0 200 164" fill="none" xmlns="http://www.w3.org/2000/svg">
<g id="Group 8">
<path id="Vector" d="M191.887 89.0759C184.485 95.2943 177.038 97.8547 167.404 98.4176C166.086 99.0669 168.266 99.7404 168.832 99.9857C173.937 101.989 180.664 100.033 185.871 98.1483C175.316 109.494 160.93 120.837 145.57 123.712C127.841 127.397 106.242 120.493 98.9549 102.871C108.488 95.8255 117.308 85.9321 119.683 73.9729C121.287 58.2966 104.758 55.6417 95.6568 67.6174C88.2774 77.3316 86.9052 90.5917 90.0397 102.254C47.9605 124.924 6.90334 94.8764 3.44544 49.8023C3.44337 49.7467 3.42997 49.6921 3.40607 49.6418C3.38218 49.5916 3.34828 49.5467 3.30646 49.51C3.26463 49.4732 3.21576 49.4454 3.16282 49.4282C3.10988 49.411 3.05399 49.4048 2.99857 49.4099C2.94419 49.4114 2.89064 49.4236 2.84104 49.446C2.79145 49.4683 2.74681 49.5003 2.70973 49.5401C2.67265 49.5799 2.64387 49.6267 2.62508 49.6778C2.60629 49.7288 2.59786 49.7831 2.60028 49.8375C4.18317 97.2409 47.4587 129.129 91.8514 107.187C97.4643 120.172 110.526 128.763 124.204 130.986C148.662 135.271 174.252 119.512 187.75 99.7588C188.031 102.315 187.331 104.895 187.599 107.444C187.915 110.428 190.552 115.263 191.349 113.277C191.1 110.415 191.071 107.538 191.262 104.671C191.405 101.77 191.656 98.497 191.934 95.6071L192 95.0589L192.602 89.4978C192.614 89.41 192.6 89.3205 192.561 89.2406C192.523 89.1608 192.461 89.0941 192.385 89.049C192.308 89.0039 192.22 88.9824 192.132 88.9872C192.043 88.992 191.958 89.0229 191.887 89.0759ZM97.6976 80.4261C100.695 64.379 117.884 61.6823 112.362 77.6096C109.027 85.3431 103.833 92.1328 97.2412 97.3753C96.0905 91.7654 96.2466 85.9659 97.6976 80.4261Z" fill="#F2F062"/>
<path id="Vector_2" d="M29.2426 111.445C29.2642 111.392 29.2987 111.346 29.3428 111.311C29.3869 111.275 29.4393 111.251 29.4951 111.241C29.5509 111.231 29.6084 111.235 29.6623 111.252C29.7161 111.27 29.7646 111.301 29.8033 111.343C36.9124 118.859 48.7286 122.224 57.6862 120.218C57.7664 120.199 57.8508 120.212 57.9222 120.253C57.9936 120.294 58.0467 120.361 58.0705 120.44C58.0937 120.519 58.09 120.604 58.0599 120.681C58.0298 120.758 57.975 120.823 57.9041 120.865C48.5841 126.404 35.4321 119.933 29.3457 112.079C29.2754 111.99 29.2306 111.883 29.2158 111.771C29.2011 111.658 29.217 111.543 29.2619 111.439L29.2426 111.445Z" fill="#F2F062"/>
<path id="Vector_3" d="M114.749 53.476C120.319 51.0848 126.109 57.2856 124.835 62.8927C124.827 62.9308 124.807 62.9652 124.777 62.9904C124.748 63.0155 124.711 63.03 124.672 63.0314C124.633 63.0327 124.595 63.021 124.564 62.998C124.533 62.9749 124.51 62.9421 124.5 62.9046C123.069 58.1994 119.917 54.2607 114.808 53.8069C114.768 53.8055 114.731 53.7906 114.701 53.7648C114.671 53.7389 114.652 53.7037 114.645 53.665C114.638 53.6263 114.645 53.5864 114.664 53.552C114.683 53.5176 114.713 53.4908 114.749 53.476Z" fill="#F2F062"/>
<path id="Vector_4" d="M27.2523 108.822C26.8058 109.001 26.3084 109.007 25.8576 108.839C25.5199 108.724 25.2247 108.51 25.0105 108.225C24.8039 107.948 24.6862 107.616 24.6728 107.271C24.6531 106.803 24.7782 106.341 25.031 105.947C25.4739 105.934 25.9147 106.012 26.3264 106.176C26.6039 106.285 26.8454 106.47 27.0236 106.709C27.2017 106.948 27.3095 107.232 27.3346 107.529C27.3656 107.961 27.3379 108.396 27.2523 108.822Z" fill="#F2F062"/>
<path id="Vector_5" d="M125.125 66.1573C125.121 66.1285 125.127 66.0994 125.141 66.074C125.155 66.0487 125.177 66.0285 125.203 66.0164C125.229 66.0042 125.259 66.0008 125.287 66.0066C125.316 66.0124 125.341 66.027 125.361 66.0485C125.574 66.2717 125.739 66.5362 125.846 66.8256C125.988 67.2179 126.053 67.6338 126.039 68.0507C126.024 68.466 125.927 68.8742 125.754 69.2519C125.629 69.534 125.447 69.7872 125.219 69.9956C125.198 70.0135 125.172 70.0247 125.144 70.0277C125.116 70.0308 125.089 70.0256 125.064 70.0128C125.039 70 125.019 69.9802 125.005 69.9559C124.991 69.9315 124.985 69.9037 124.988 69.8759C125.032 69.5877 125.058 69.3262 125.084 69.0647C125.119 68.7106 125.135 68.3625 125.151 68.0143C125.166 67.6662 125.172 67.321 125.161 66.9545C125.158 66.7018 125.149 66.4458 125.125 66.1573Z" fill="#F2F062"/>
<path id="Vector_6" d="M138.72 119.354C146.792 118.954 157.459 115.272 163.275 109.589C163.286 109.574 163.303 109.565 163.322 109.563C163.341 109.56 163.359 109.566 163.374 109.577C163.389 109.589 163.398 109.606 163.401 109.625C163.403 109.643 163.398 109.662 163.386 109.677C159.034 116.7 146.713 121.055 138.715 119.493C138.699 119.489 138.684 119.48 138.674 119.467C138.664 119.454 138.659 119.438 138.66 119.421C138.66 119.405 138.667 119.389 138.678 119.377C138.689 119.365 138.704 119.357 138.72 119.354Z" fill="#F2F062"/>
</g>
</svg>
