<svg width="467" height="678" viewBox="0 0 467 678" fill="none" xmlns="http://www.w3.org/2000/svg">
<path d="M448.233 226.777C448.26 226.93 448.255 227.087 448.22 227.238C448.185 227.39 448.119 227.532 448.028 227.658C447.936 227.784 447.82 227.89 447.687 227.969C447.554 228.049 447.405 228.102 447.251 228.123C300.588 249.285 152.788 281.022 2.47046 287.341C2.08802 287.339 1.71927 287.199 1.43293 286.945C1.14662 286.692 0.962195 286.343 0.914106 285.963C0.818633 285.388 0.947126 284.797 1.27331 284.314C1.59946 283.83 2.09857 283.489 2.66796 283.362C145.417 250.833 298.68 242.424 445.665 224.653C446.283 224.612 446.894 224.809 447.371 225.204C447.849 225.599 448.157 226.162 448.233 226.777Z" fill="#F2F062"/>
<path d="M457.79 340.882C457.873 341.013 457.93 341.159 457.956 341.312C457.982 341.466 457.977 341.623 457.941 341.774C457.905 341.925 457.839 342.068 457.746 342.193C457.654 342.318 457.538 342.423 457.404 342.503C330.306 418.687 206.244 505.063 70.041 568.968C69.6876 569.114 69.2931 569.127 68.931 569.004C68.569 568.881 68.2641 568.63 68.0731 568.299C67.7627 567.805 67.6531 567.211 67.7671 566.638C67.881 566.066 68.2098 565.559 68.6858 565.222C187.782 480.066 325.895 413.095 454.6 339.915C455.154 339.638 455.794 339.585 456.387 339.764C456.98 339.944 457.482 340.344 457.79 340.882Z" fill="#F2F062"/>
<path d="M466.177 111.273C427.646 109.964 389.269 106.443 350.961 102.179C341.39 101.058 331.814 99.9516 322.269 98.6585C312.723 97.3655 303.136 96.2404 293.613 94.7909L265.011 90.4349L236.492 85.6782C231.715 84.9173 226.96 84.1297 222.228 83.2503L207.953 80.8034C198.44 79.1785 188.897 77.6758 179.414 75.8639L165.213 73.0468C160.499 72.0263 155.771 71.0669 151.057 69.9816C141.655 67.8337 132.347 65.2392 123.061 62.6178C85.9466 51.9453 49.4217 38.9894 14.3951 21.9325L15.0716 19.6863C24.8129 20.6387 34.3519 22.1568 43.8984 23.6442C53.4449 25.1317 62.8453 27.0204 72.3353 28.6073C91.2745 31.9493 109.985 35.9637 128.741 39.7301C138.111 41.6762 147.411 43.9126 156.71 46.0841C161.348 47.2157 166.002 48.351 170.64 49.4826L184.515 53.1102C193.725 55.713 203.025 58.0142 212.287 60.4032C221.55 62.7923 230.831 65.1698 240.194 67.2112L268.212 73.4962L296.327 79.3841C305.683 81.4562 315.098 83.219 324.491 85.1383C333.884 87.0576 343.303 88.8051 352.721 90.5527C390.404 97.642 428.27 103.983 466.342 108.95L466.177 111.273Z" fill="#F2F062"/>
</svg>
