<svg width="157" height="36" viewBox="0 0 157 36" fill="none" xmlns="http://www.w3.org/2000/svg">
<g id="Frame" clip-path="url(#clip0_401_69)">
<path id="Vector" d="M30 0.5H5C2.23858 0.5 0 2.73858 0 5.5V30.5C0 33.2614 2.23858 35.5 5 35.5H30C32.7614 35.5 35 33.2614 35 30.5V5.5C35 2.73858 32.7614 0.5 30 0.5Z" fill="#F2F062"/>
<path id="Vector_2" d="M26.6463 26.3222L25.6352 26.7315V13.9241H28.837V29.5H25.6352L13.0444 17.1981L14.0556 16.7889V29.5H10.8537V13.9241H14.0556L26.6463 26.3222Z" fill="#3E3E3E"/>
<path id="Vector_3" d="M67.6463 22.3222L66.6352 22.7315V9.92412H69.837V25.5H66.6352L54.0444 13.1981L55.0556 12.7889V25.5H51.8537V9.92412H55.0556L67.6463 22.3222ZM74.0107 9.92412H77.2125V25.5H74.0107V9.92412ZM84.5604 9.92412V22.8278H94.9122V25.5H81.3585V9.92412H84.5604ZM94.3979 9.92412H110.816V12.5963H94.3979V9.92412ZM101.018 12.2593H104.22V25.5H101.018V12.2593ZM124.94 23.7426L124.459 23.7185L127.275 13.463H129.37L125.686 25.5H123.881L120.318 14.9556H120.799L117.236 25.5H115.431L111.772 13.463H113.866L116.635 23.7185L116.153 23.7426L119.403 13.463H121.738L124.94 23.7426ZM139.597 21.6241H141.403C141.274 22.4105 140.986 23.1167 140.536 23.7426C140.103 24.3525 139.525 24.842 138.803 25.2111C138.097 25.5642 137.278 25.7407 136.347 25.7407C135.224 25.7407 134.213 25.4759 133.314 24.9463C132.415 24.4006 131.701 23.6623 131.171 22.7315C130.658 21.7846 130.401 20.7093 130.401 19.5056C130.401 18.3019 130.65 17.2265 131.147 16.2796C131.661 15.3327 132.359 14.5864 133.242 14.0407C134.124 13.4951 135.12 13.2222 136.227 13.2222C137.399 13.2222 138.386 13.487 139.188 14.0167C140.007 14.5302 140.608 15.2926 140.994 16.3037C141.395 17.2988 141.555 18.5265 141.475 19.987H132.327C132.407 20.7735 132.624 21.4636 132.977 22.0574C133.33 22.6512 133.795 23.1167 134.373 23.4537C134.951 23.7747 135.609 23.9352 136.347 23.9352C137.166 23.9352 137.856 23.7265 138.418 23.3093C138.995 22.8759 139.389 22.3142 139.597 21.6241ZM136.299 15.0278C135.304 15.0278 134.47 15.3167 133.795 15.8944C133.121 16.4722 132.672 17.2586 132.447 18.2537H139.501C139.437 17.1944 139.092 16.392 138.466 15.8463C137.856 15.3006 137.134 15.0278 136.299 15.0278ZM150.338 25.7407C149.455 25.7407 148.733 25.5401 148.171 25.1389C147.61 24.7216 147.168 24.192 146.847 23.55C146.542 22.892 146.326 22.2099 146.197 21.5037C146.069 20.7815 146.005 20.1154 146.005 19.5056C146.005 18.6389 146.061 17.8284 146.173 17.0741C146.302 16.3198 146.518 15.6537 146.823 15.0759C147.128 14.4981 147.562 14.0488 148.123 13.7278C148.701 13.3907 149.439 13.2222 150.338 13.2222C151.349 13.2222 152.248 13.4951 153.034 14.0407C153.821 14.5864 154.439 15.3327 154.888 16.2796C155.337 17.2265 155.562 18.3019 155.562 19.5056C155.562 20.7093 155.329 21.7846 154.864 22.7315C154.399 23.6623 153.773 24.4006 152.986 24.9463C152.2 25.4759 151.317 25.7407 150.338 25.7407ZM149.857 23.9111C150.595 23.9111 151.245 23.7265 151.807 23.3574C152.368 22.9722 152.81 22.4506 153.131 21.7926C153.468 21.1185 153.636 20.3562 153.636 19.5056C153.636 18.2216 153.307 17.1623 152.649 16.3278C151.991 15.4772 151.06 15.0519 149.857 15.0519C149.054 15.0519 148.38 15.2444 147.834 15.6296C147.305 15.9988 146.904 16.5204 146.631 17.1944C146.374 17.8525 146.245 18.6228 146.245 19.5056C146.245 20.308 146.374 21.0463 146.631 21.7204C146.904 22.3784 147.305 22.908 147.834 23.3093C148.364 23.7105 149.038 23.9111 149.857 23.9111ZM146.245 8.64819V23.0926C146.245 23.3815 146.221 23.7667 146.173 24.2481C146.141 24.7296 146.109 25.1469 146.077 25.5H144.32V8.64819H146.245Z" fill="white"/>
</g>
<defs>
<clipPath id="clip0_401_69">
<rect width="157" height="35" fill="white" transform="translate(0 0.5)"/>
</clipPath>
</defs>
</svg>
