<svg width="238" height="684" viewBox="0 0 238 684" fill="none" xmlns="http://www.w3.org/2000/svg">
<path fill-rule="evenodd" clip-rule="evenodd" d="M3.63454 670.182C2.01806 662.649 9.41755 660.104 14.0831 658.428C17.4264 656.259 29.8088 648.752 39.3904 639.485C47.2314 631.902 52.5679 622.182 54.7896 621.255C54.7896 621.255 57.0766 619.929 57.3141 618.944C58.7057 613.171 57.545 607.788 57.3141 604.286C52.8537 603.115 49.2802 601.655 46.606 599.611C45.8265 599.871 44.6584 600.204 44.3089 599.064C41.8945 582.947 40.8506 567.019 38.8869 550.889C31.446 489.453 30.6067 417.679 43.4052 361.567C43.5409 358.787 43.2972 356.273 43.0511 353.884C41.3197 353.698 40.2734 352.022 38.8593 351.021C36.6656 349.276 34.0696 347.938 34.1754 344.891C33.6557 344.496 33.7155 344.274 33.973 343.772C32.299 336.577 39.763 328.995 41.8738 323.064C38.0361 285.539 43.2558 250.078 40.3447 212.544C36.6656 211.005 39.1398 201.385 39.3904 197.417C41.4277 171.853 54.7167 146.578 78.6467 138.227C80.0146 137.95 82.0708 136.386 83.2028 137.436C85.3904 136.57 88.301 138.278 89.9941 136.311L89.9771 136.298C91.4027 134.321 92.0417 131.808 92.5103 129.432C92.4319 130.102 92.3011 130.766 92.1399 131.415C96.2653 119.788 97.3046 116.679 110.585 116.132C116.568 116.052 124.454 116.231 127.942 121.937C129.371 124.59 128.935 127.635 129.822 130.427C131.45 135.55 138.479 133.075 142.17 135.735C171.705 145.208 195.932 164.544 203.895 195.58C205.523 199.321 207.369 203.044 208.73 206.904C208.941 207.477 209.52 209.417 208.129 210.309L207.456 210.741C216.321 252.176 216.909 287.091 187.125 314.715C184.89 326.585 190.64 342.794 188.43 354.319C189.689 356.105 188.092 357.545 186.482 357.66C186.327 357.747 185.7 358.021 185.529 358.099C188.091 394.271 177.333 443.021 172.592 462.26C171.946 473.812 175.889 483.302 184 489.598C192.961 495.119 210.678 520.047 207.394 546.196C211.232 546.95 215.043 547.361 218.725 548.805C234.838 545.961 234.678 577.024 235.705 587.946C237.444 606.233 238.525 632.739 221.152 644.445C216.575 647.765 207.295 651.651 202.54 646.337C200.981 644.466 200.591 642.656 201.204 640.745C193.352 629.651 195.468 615.139 194.747 602.127C192.469 601.989 190.087 603.058 187.884 602.669C185.624 600.676 193.871 601.218 194.727 601.101C194.639 599.096 194.478 596.983 194.269 594.959C192.976 595.219 191.318 595.84 190.074 595.886C189.338 596.065 188.818 595.051 189.262 594.527C190.233 593.6 192.708 593.745 194.101 593.612C193.866 591.919 193.578 590.14 193.259 588.5C191.555 588.44 189.795 589.526 188.182 589.303C189.403 588.489 191.695 588.737 193.184 588.199C192.216 582.924 190.243 577.916 188.409 572.981C183.91 574.837 180.028 574.911 175.636 574.354C173.839 574.63 172.963 574.262 172.672 572.016L172.787 571.873C169.305 551.04 158.071 531.18 137.203 508.658C133.081 504.045 128.423 498.612 125.319 492.539C119.083 479.901 118.018 465.955 113.213 452.83C108.727 439.639 102.593 427.019 96.8335 414.515C95.9889 420.924 94.8544 427.498 93.675 433.784C88.4843 456.054 88.9874 479.814 92.8074 502.208C98.4594 533.574 95.735 565.088 96.9921 596.675C96.9749 598.496 96.7491 600.151 97.0163 602.046C97.0517 602.193 96.9827 602.366 96.8098 602.361L96.4835 602.37C93.767 604.359 90.0152 604.718 86.8232 605.799C85.4826 606.859 85.8602 608.54 85.7374 609.85C85.3867 615.5 84.9384 621.173 85.4948 626.995C87.9579 631.715 91.0168 630.74 91.6425 637.393C92.1902 644.988 93.1592 653.065 89.4604 659.828L90.8598 660.069C92.9366 664.429 91.6687 667.257 86.7876 669.102C62.6902 678.55 28.781 687.127 3.63454 679.996C3.17925 680.449 2.51473 679.978 1.99506 679.267C1.49378 678.582 1.12816 677.674 1.21094 677.147C1.64094 674.834 1.04999 670.61 3.63454 670.182Z" fill="white"/>
<path fill-rule="evenodd" clip-rule="evenodd" d="M2.48715 677.75C24.1407 687.472 63.4612 675.204 84.7376 668.106C90.4744 666.034 92.3855 665.629 90.7782 659.016C87.7706 664.82 81.3023 666.223 75.1054 667.386C54.114 672.171 32.713 681.006 10.2638 676.694C6.9687 676.177 3.70816 674.393 2.74929 671.1C2.15835 672.495 2.52394 674.386 2.28709 675.919C2.2434 676.531 2.22961 677.193 2.48715 677.75ZM90.0654 641.582C89.6745 637.682 89.049 633.564 86.8301 630.12C87.0715 635.691 83.7259 645.16 76.3954 642.005C74.319 640.906 73.1553 638.689 71.8195 636.91C67.3794 631.055 61.686 625.971 55.2543 622.279C51.6762 622.895 50.1379 629.437 47.8316 632.175C50.4023 633.32 55.0614 635.93 55.5326 638.632C52.3223 637.551 49.3676 635.539 46.0013 634.833C44.9228 636.321 43.78 637.765 42.5797 639.159C44.1479 639.851 50.4713 643.047 50.4299 644.643C47.0107 644.086 43.6973 642.412 40.2596 641.725C38.7305 643.242 37.3394 644.873 35.8172 646.395C38.1166 647.342 40.5448 648.4 41.8002 650.607C41.86 650.706 41.7129 650.819 41.6324 650.722C39.9101 648.646 36.9462 648.264 34.3777 647.797C30.4365 651.509 26.024 654.781 21.0848 657.23C16.1434 659.934 8.63348 660.55 6.66748 666.411C5.09468 672.272 9.99934 672.898 14.5246 673.312C19.1027 673.962 23.713 674.061 28.2613 673.682C42.4786 673.089 55.9191 668.904 69.3546 665.245C85.7813 662.222 91.1116 659.775 90.0654 641.582ZM85.2481 607.314C85.2872 607.572 85.3215 607.829 85.3582 608.089C85.4045 607.815 85.4364 607.539 85.5033 607.27C85.418 607.284 85.3332 607.3 85.2481 607.314ZM58.708 620.4C65.0018 625.056 71.1458 630.241 75.517 636.733C78.4097 642.017 82.2589 638.8 83.2152 634.569C83.9903 625.123 83.3235 616.965 84.2315 607.461C75.5282 608.648 66.5884 607.916 58.0874 605.817C59.1104 610.059 59.5798 611.669 59.612 616.022C59.5565 617.457 59.5775 619.207 58.708 620.4ZM44.6193 272.678C44.4331 286.582 44.3457 300.491 44.8286 314.391C57.0688 282.756 53.3228 248.428 55.0614 215.176C51.444 213.971 47.558 213.445 43.8306 212.93C45.3275 233.569 44.9412 252.006 44.6193 272.678ZM113.793 342.925C143.846 328.556 148.004 291.715 171.8 271.418C172.568 270.686 173.205 269.935 173.575 269.049C171.869 251.811 171.993 236.697 169.977 219.476C167.723 215.388 166.833 210.64 165.155 206.289C164.276 203.64 163.21 201.017 162.957 198.237C162.745 197.321 164.175 196.924 164.442 197.788C167.618 203.96 169.197 210.824 171.568 217.331C171.901 217.464 172.345 217.358 172.476 217.009C172.497 217.094 172.52 217.179 172.541 217.264C182.743 213.277 193.263 209.563 204.378 209.591C204.371 209.557 204.362 209.52 204.355 209.485C205.041 209.506 206.478 209.451 206.048 208.457C196.278 172.828 178.735 148.406 141.524 136.805C146.281 164.451 77.0369 166.052 77.9935 140.319C51.9085 151.526 40.6712 183.003 43.6283 209.506C46.107 208.837 52.562 211.47 55.0798 212.999C55.5926 202.238 54.3185 189.25 55.0683 179.627C59.0371 228.692 66.4435 287.401 41.9658 331.92C40.3769 334.904 38.9352 337.76 38.9996 341.265C38.8087 341.458 38.7903 341.796 39.0226 342.044C39.0226 342.06 39.0226 342.076 39.0249 342.092C39.0363 342.095 39.0501 342.095 39.0639 342.095C39.7744 342.941 40.1194 343.109 41.1472 343.295C43.5754 343.785 46.13 344.157 48.3536 345.284C72.0446 357.722 90.6264 341.688 113.793 342.925ZM106.306 365.533C105.161 367.72 103.238 369.479 100.96 370.578C101.241 371.13 101.337 371.751 101.367 372.332C105.471 373.172 104.317 375.119 107.09 376.048C108.904 376.55 110.65 376.763 112.218 377.863C117.555 382.834 118.879 382.468 124.607 378.095C124.529 377.699 132.324 370.086 134.738 365.83C136.75 362.279 138.857 358.704 141.94 355.958C157.04 340.497 173.127 325.905 187.744 310.016C217.039 280.825 211.449 247.725 204.721 211.263C193.861 212.56 182.941 215.165 173.161 219.948C176.61 236.041 176.831 250.629 178.317 266.959C178.765 268.978 178.259 272.866 175.399 271.97C149.105 292.846 146.049 335.746 111.544 348.152C97.481 353.868 103.416 358.508 98.7686 369.302C101.326 368.833 103.607 366.69 104.706 364.639C105.25 363.62 106.837 364.517 106.306 365.533ZM185.783 352.868C186.378 348.777 185.914 344.705 185.886 340.607C186.206 333.145 185.958 325.872 185.67 318.385C177.425 326.928 168.852 335.18 160.432 343.564C169.4 344.695 179.742 345.627 185.783 352.868ZM185.935 358.885C185.794 358.84 185.657 358.777 185.53 358.702C185.562 361.912 185.512 365.121 185.394 368.327C185.62 365.181 185.799 362.033 185.935 358.885ZM196.022 587.056C198.441 586.87 208.786 586.514 210.028 588.137C208.63 588.728 206.708 588.401 205.204 588.468C202.283 588.588 199.37 588.845 196.48 589.254C196.696 590.381 196.891 591.506 197.052 592.635C199.968 592.913 205.645 593.039 207.496 595.079C204.194 595.605 200.757 595.132 197.443 595.789C197.604 597.335 197.722 598.882 197.809 600.43C199.129 600.57 206.891 601.855 206.884 603.076C203.978 603.462 200.899 602.954 197.937 603.242C198.579 612.515 196.404 640.52 209.078 642.233C220.159 641.649 225.02 623.69 226.526 615.075C229.865 595.001 229.292 573.598 222.675 554.248C220.311 548.868 213.877 547.934 208.437 547.656C208.23 548.566 208.025 549.461 207.795 550.362C210.154 555.711 210.906 561.733 210.971 567.52C210.472 575.84 200.207 582.025 192.753 576.53C194.146 579.933 195.222 583.474 196.022 587.056ZM210.685 646.903C232.634 642.185 236.234 616.767 234.726 598.077C233.496 585.067 234.974 557.638 222.965 549.994C238.486 564.163 237.138 660.624 202.741 643.787C203.599 646.505 208.009 647.289 210.685 646.903ZM206.386 556.214C206.346 555.878 206.303 555.545 206.257 555.209C203.822 561.825 199.651 568.111 193.44 571.942C195.818 574.908 200.449 575.791 203.574 573.363C209.023 569.277 206.751 561.885 206.386 556.214ZM131.572 133.595C131.616 133.671 131.662 133.747 131.708 133.821C132.011 133.841 132.317 133.869 132.627 133.904C132.275 133.798 131.924 133.699 131.572 133.595ZM89.8628 136.024C89.8745 135.989 89.886 135.955 89.8952 135.922C89.8676 135.938 89.84 135.957 89.8101 135.975C89.8329 135.989 89.8469 136.005 89.8628 136.024ZM0.355585 673.723C0.415369 672.077 0.438364 669.952 2.36528 669.368C1.4915 662.277 7.37802 658.239 13.5589 656.275C18.8291 653.052 24.8053 650.798 29.6478 646.912C27.399 646.489 25.1502 645.979 23.152 645.001C21.6436 644.263 22.3702 641.805 24.0051 642.033C26.9 642.415 29.5007 643.886 32.2209 644.909C33.7661 643.64 35.263 642.316 36.6771 640.913C34.9158 640.573 32.6762 640.697 31.6506 638.949C31.331 638.402 31.4736 637.834 31.8599 637.413C33.6442 635.606 37.1807 637.411 39.3974 637.935C40.462 636.71 41.4898 635.457 42.4993 634.192C40.8253 634.038 36.4702 634.344 37.3233 631.58C38.9582 629.418 42.474 630.715 44.8378 631.159C47.8362 627.473 48.802 621.816 53.4886 619.788C53.6565 618.894 54.8243 618.963 55.6038 619.227C56.7513 613.75 56.6639 610.965 56.3282 605.35C52.8494 604.387 49.3975 603.122 46.5048 601.048C45.1758 601.439 43.5639 600.988 43.2879 599.427C42.4602 593.925 41.998 587.576 41.4185 581.956H41.207C40.1056 571.705 39.218 561.425 37.9717 551.201C30.8366 492.104 29.2822 419.972 42.4901 361.587C42.5935 359.375 42.4372 357.161 42.2141 354.965C40.639 354.544 40.8506 353.006 39.5468 352.116C37.1232 350.141 34.6582 349.035 34.4352 345.588C33.9454 345.121 33.888 344.415 34.157 343.803C33.5293 340.264 34.4536 336.751 36.3368 333.693C38.4017 330.209 39.2019 326.693 40.9242 323.037C37.1577 286.187 42.267 250.472 39.4732 213.438C35.8907 211.541 38.1396 201 38.473 197.487C40.5655 174.412 51.3382 148.935 74.2431 139.337C75.8504 137.98 78.0946 137.52 80.0583 136.773C81.3851 136.12 83.5442 135.554 84.4525 137.074C85.4157 136.626 88.5179 136.283 89.5802 135.506C89.7779 135.361 89.9044 135.203 89.9343 135.026C90.0125 135.028 90.1045 135.012 90.2033 134.991C91.1826 133.607 92.1165 123.965 93.3236 124.653C94.6412 127.964 93.7283 131.705 92.468 135.049C91.5991 138.006 90.4077 145.612 85.7908 143.667C84.9949 143.271 85.4872 142.244 86.2 142.161C88.3889 141.535 88.8766 138.318 89.7227 136.433C88.7202 137.265 84.1534 138.514 83.6544 138.778C73.7485 161.515 133.642 160.322 138.35 144.646C141.708 139.231 138.81 136.297 132.825 135.428C137.224 140.317 131.655 141.402 129.537 136.608C127.511 133.175 126.589 129.003 127.281 125.053C126.925 123.667 126.623 121.813 128.698 122.186C128.769 122.002 128.882 122.147 128.838 122.278C129.595 123.483 129.068 125.214 129.337 126.605C129.564 128.882 130.211 131.112 131.307 133.126C133.342 133.515 135.368 133.931 137.385 134.386C138.594 131.928 146.44 136.831 148.546 137.408C176.528 145.674 197.807 167.689 205.234 195.457C206.891 199.154 208.681 202.87 210.037 206.682C210.644 208.333 210.644 210.382 208.977 211.451C217.101 248.718 219.083 287.546 188.393 315.497C187.696 318.523 188.16 321.733 188.181 324.815C187.924 331.832 193.921 355.885 186.955 358.996C188.991 390.153 181.359 432.547 173.962 462.605C173.414 472.936 176.53 482.334 184.916 488.853C200.86 500.773 207.577 520.67 209.442 539.631C209.706 541.574 209.446 543.551 209.009 545.46C212.465 546.104 215.7 546.522 219.056 547.789C237.559 544.243 236.239 583.998 237.655 595.794C238.764 613.233 238.072 634.137 222.047 645.556C216.66 649.391 207.149 653.075 201.899 647.266C200.414 645.489 199.605 643.41 200.189 641.138C192.663 630.117 194.44 616.031 193.877 603.49C191.906 603.559 189.759 604.437 187.818 603.955C186.323 603.559 186.132 601.641 187.397 600.878C189.223 599.843 191.704 600.236 193.746 600.167C193.684 598.967 193.594 597.767 193.479 596.567C191.541 597.04 188.763 598.178 188.186 595.47C187.953 593.002 191.069 592.814 193.01 592.708C192.874 591.777 192.722 590.85 192.55 589.926C191.065 590.075 189.497 591.023 188.036 590.57C187.209 590.243 186.921 589.406 187.526 588.728C188.65 587.626 190.573 587.847 192.06 587.505C191.157 583.078 189.524 578.845 187.951 574.612C185.104 575.601 182.021 576.254 178.983 576.005C177.409 575.674 175.688 575.58 174.097 575.794C172.327 575.325 171.918 573.432 171.685 571.887C171.72 571.832 171.754 571.779 171.793 571.731C167.703 547.909 153.028 527.329 136.573 509.598C132.041 504.526 127.596 499.251 124.517 493.226C118.263 480.635 117.141 466.468 112.356 453.387C108.325 441.508 102.937 430.117 97.6557 418.709C95.538 433.734 91.583 448.512 91.1298 463.748C90.4399 483.024 94.6872 502.019 96.4991 521.141C99.117 541.362 97.7224 561.685 97.8884 581.956H97.7758C97.8188 586.845 97.9514 591.942 98.2556 596.817C98.2441 598.599 98.0142 600.278 98.2674 602.06C98.4074 603.046 97.6992 603.665 96.9542 603.686C94.2181 605.481 90.7803 606.118 87.6349 606.886C86.7634 607.553 87.1403 609.195 86.9862 610.2C86.6484 615.845 86.2021 620.103 86.7519 625.797C89.8285 630.345 92.0449 629.618 92.9005 636.533C93.3717 643.753 94.409 651.557 91.2542 658.11C92.666 658.432 93.2018 662.741 92.9902 663.88C92.6315 667.096 89.7963 668.113 87.0554 669.223C67.0253 676.729 24.465 689.083 3.88288 680.587C2.40896 681.422 0.764872 679.787 0.288889 678.469C-0.341146 676.867 0.238306 675.315 0.355585 673.723Z" fill="#262626"/>
<path fill-rule="evenodd" clip-rule="evenodd" d="M76.2452 58.4562C77.133 53.0848 74.2192 51.9705 76.2452 46.8647C80.7479 37.404 93.0187 37.8117 102.023 37.0842C112.067 36.6993 122.232 38.0252 131.491 42.0506C133.702 43.012 135.829 44.1426 137.869 45.4273C139.632 46.5381 139.389 48.6504 138.278 49.8026C146.295 61.1553 141.709 76.3939 148.106 88.344C149.288 90.4799 150.851 92.3953 151.878 94.6179C153.439 97.9965 153.539 102.837 149.998 105.081C145.012 107.758 142.229 102.458 139.779 110.14C127.542 136.926 102.938 138.435 79.5816 124.47C77.5609 123.346 75.4986 122.075 73.9727 120.309C70.5091 116.412 70.917 110.93 70.8404 106.063C70.7976 103.21 70.7905 100.357 70.8183 97.5042C70.9273 85.9478 74.7575 69.9172 76.2452 58.4562Z" fill="white"/>
<path fill-rule="evenodd" clip-rule="evenodd" d="M125.993 26.3301C111.89 19.9331 95.8953 17.5072 80.5122 19.0984C72.9195 19.8826 65.4267 21.5649 58.296 24.2977L57.671 24.5392C55.9108 25.2167 54.0133 25.8892 52.6755 27.2683C51.1186 28.8709 50.6819 31.2945 51.7948 33.2743C52.6594 34.8126 54.2138 35.9161 55.8717 36.505C55.2876 36.9833 54.7335 37.5167 54.2138 38.1123C53.3377 39.1102 53.271 40.5333 54.2138 41.5177C56.0303 43.4148 58.3872 44.7873 60.9258 45.4452C60.6407 46.8225 60.7947 48.347 61.4064 49.7198C63.1615 53.6603 68.1057 54.1298 71.9103 53.8958L72.0251 53.8886L72.2366 56.3099C72.3493 57.5999 73.1219 58.6001 74.4325 58.7979C74.4785 58.8048 74.5247 58.8094 74.5705 58.8137C72.4964 66.3146 71.2433 74.0473 70.0867 81.7345C69.4824 85.7472 68.9415 89.7691 68.4237 93.7938L68.2517 95.1355C67.6999 99.4745 67.01 103.857 66.7709 108.228C66.5571 112.195 67.3136 115.982 69.7578 119.183C71.9515 122.052 74.943 124.202 78.1599 125.798C85.4283 129.406 93.0785 132.092 101.117 133.338L101.653 133.42C104.757 133.894 107.954 134.293 111.023 133.435C113.72 132.68 116.549 130.735 115.939 127.61C115.735 126.555 114.258 126.509 113.752 127.325L113.636 127.512C113.029 128.474 112.364 129.369 111.306 129.866C110.067 130.45 108.629 130.613 107.275 130.629C103.493 130.673 99.5536 129.73 95.9114 128.785C89.1097 127.019 82.1241 124.14 76.5526 119.778C74.1819 117.925 72.278 115.607 71.6066 112.625C70.7765 108.948 71.5399 104.929 71.917 101.234C72.693 93.6087 73.6167 85.9981 74.5912 78.396L74.7867 76.8759C75.6073 70.5203 76.4696 64.1624 76.8791 57.77C77.0493 57.5378 77.1642 57.2734 77.2102 56.9836L77.2744 56.5674C77.3298 56.211 77.339 55.8845 77.2999 55.5833C77.2976 54.429 77.2654 53.2816 77.1987 52.127C77.1875 51.9203 77.178 51.7134 77.1711 51.5087C78.3714 51.7732 79.5809 51.987 80.795 52.1687C89.3304 53.454 97.9992 53.7759 106.604 53.1367C110.897 52.8169 115.157 52.2675 119.404 51.58C121.566 51.2305 123.72 50.8442 125.868 50.4119C127.42 50.1015 128.94 49.6807 130.467 49.2852C132.042 51.5777 132.893 54.3991 132.727 57.1699C132.541 60.3316 130.435 63.1989 131.026 66.4296C131.58 69.4531 134.171 70.3906 136.728 71.1393L137.816 71.4536C138.653 71.6978 139.26 71.9337 139.412 72.9393C139.671 74.6661 139.352 76.6091 139.285 78.3452C139.205 80.3986 139.099 82.4519 139.051 84.5053C139.025 85.5676 138.984 86.6346 138.986 87.6969C138.989 88.4511 139.101 88.9662 139.393 89.4534C139.168 89.7365 138.966 90.0423 138.786 90.3665C138.729 90.4723 138.871 90.5847 138.956 90.4976C139.184 90.2607 139.426 90.0469 139.681 89.8558C139.809 90.0147 139.959 90.1757 140.134 90.3481L140.147 90.3297C140.695 90.8747 141.564 90.9276 142.243 90.3481L142.421 90.1938C142.917 89.7583 143.258 89.3959 143.397 88.6764C143.404 88.6396 143.411 88.6029 143.415 88.5661C144.677 88.5224 145.96 88.8211 147.096 89.449C148.897 90.4447 150.164 91.8634 150.913 93.6156C150.614 93.9651 150.265 94.2778 149.858 94.5399C149.8 94.579 149.851 94.6641 149.913 94.6342C150.329 94.4388 150.702 94.1973 151.035 93.9145C151.304 94.6043 151.493 95.3447 151.608 96.1288C152.013 98.8973 151.291 102.28 148.789 103.857C147.706 104.54 146.469 104.91 145.186 104.915C144.56 104.917 144.02 104.811 143.413 104.662C143.001 104.561 142.592 104.414 142.162 104.414C141.794 104.414 141.454 104.506 141.139 104.69L141.226 104.697C141.438 104.717 141.397 104.726 141.102 104.726C140.182 104.765 139.656 105.699 140.078 106.511L140.134 106.636C140.146 106.661 140.156 106.682 140.163 106.699L140.197 106.914C140.2 106.935 140.204 106.956 140.207 106.977L140.22 107.021C140.222 107.028 140.225 107.035 140.228 107.042L138.849 109.145C137.157 111.719 135.428 114.282 133.461 116.633C132.081 118.281 130.619 119.898 129.073 121.395C127.685 122.74 126.02 123.388 124.447 124.446C123.608 125.007 123.362 126.182 124.125 126.939C126.365 129.162 129.536 127.396 131.373 125.589C133.111 123.876 134.613 121.816 135.907 119.753C138.204 116.085 140.032 112.186 140.833 107.952C141.166 108.258 141.591 108.449 142.022 108.599C142.884 108.897 143.834 109.022 144.744 109.054C146.489 109.111 148.237 108.688 149.807 107.939C156.197 104.892 157.136 95.7678 153.229 90.3872C153.756 88.8595 154.05 87.2021 154.37 85.7884L154.515 85.1567C156.131 78.0991 157.215 70.6686 154.351 63.7531C153.983 62.8609 153.569 61.9917 153.079 61.1594C152.686 60.4902 152.01 59.7774 151.824 59.0163C151.41 57.3446 153.965 55.5879 154.71 54.2611C155.586 52.7044 155.71 50.8672 154.517 49.4436C154.365 49.2645 154.199 49.0987 154.02 48.9541C155.151 46.903 155.204 44.3231 153.714 42.2996C152.735 40.9659 151.24 40.0323 149.607 39.7495C148.609 39.577 147.409 39.6414 146.312 39.9495C140.306 34.3734 133.454 29.7148 125.993 26.3301ZM149.056 96.1012C147.453 94.6871 145.682 93.9467 143.498 94.1329C141.302 94.3213 138.657 95.2298 137.368 97.113C136.349 98.6007 138.425 100.783 139.92 99.6653C141.281 98.6467 142.19 97.497 143.879 96.9497C145.397 96.46 147.276 96.1449 148.865 96.4255C149.039 96.4554 149.214 96.2392 149.056 96.1012Z" fill="#262626"/>
<path fill-rule="evenodd" clip-rule="evenodd" d="M94.726 114.304C96.42 114.794 98.2381 114.838 99.9648 114.332C101.531 113.872 103.139 112.86 104.292 111.522C105.315 110.333 105.979 108.888 105.952 107.346C105.949 107.17 105.886 107.023 105.79 106.909C105.685 106.786 105.54 106.702 105.384 106.665C105.223 106.627 105.054 106.641 104.909 106.707C104.778 106.766 104.666 106.867 104.596 107.014C104.419 107.247 104.243 107.476 104.065 107.699C102.641 109.458 101.262 110.772 99.1202 111.243C97.9583 111.499 96.7978 111.386 95.7329 110.995C94.5931 110.578 93.5625 109.843 92.7552 108.903C92.3903 108.478 91.9593 108.305 91.5383 108.302C91.0607 108.299 90.5889 108.52 90.2336 108.875C89.8841 109.223 89.6503 109.697 89.6289 110.192C89.6103 110.627 89.7521 111.081 90.1295 111.487C91.3725 112.821 92.9833 113.799 94.726 114.304ZM94.7784 92.2773C93.0419 93.3327 90.3962 95.7937 92.2642 98.4105C94.4629 100.717 97.6288 98.0722 99.1887 96.8758C100.635 95.9487 102.26 98.3332 100.918 99.416C89.6457 107.762 85.071 92.5532 93.9 91.0363C94.8722 90.8691 95.2333 91.9507 94.7784 92.2773ZM111.021 87.6331C111.579 87.2763 112.236 87.1537 112.963 87.4848C113.532 87.7433 114.529 88.6052 115.223 89.7381C115.698 90.5135 116.035 91.4228 115.965 92.3701C115.948 92.5902 116.03 92.7523 116.158 92.8723C116.259 92.9671 116.405 93.0365 116.577 93.0584C116.723 93.0768 116.886 93.0602 117.019 93.0188C117.271 92.9399 117.405 92.776 117.455 92.6424C117.941 91.352 117.732 89.9118 117.187 88.6127C116.453 86.8594 115.118 85.3907 114.243 84.9171C112.747 84.1065 110.982 84.0693 109.483 84.8949C108.208 85.5978 107.41 86.7324 106.617 87.889C106.448 88.1351 106.281 88.379 106.108 88.6188C105.761 89.0991 105.727 89.5758 105.861 89.9844C106.009 90.4369 106.389 90.8189 106.863 91.0189C107.301 91.2038 107.81 91.2299 108.26 91.0399C108.64 90.8794 108.989 90.5669 109.21 90.0365C109.582 89.1429 110.202 88.1574 111.021 87.6331ZM82.6773 89.6206C83.0595 89.8198 83.3586 89.8801 83.7826 89.753C84.0169 89.6826 84.2487 89.5476 84.4301 89.3662C84.61 89.1864 84.7397 88.9629 84.7902 88.7148C84.9142 88.1024 85.2492 87.5294 85.7263 87.156C86.1345 86.8366 86.6493 86.6674 87.2205 86.7628C87.837 86.8658 88.424 87.2611 88.8285 87.7272C88.9637 87.8831 89.0697 88.0601 89.1761 88.236C89.3755 88.5651 89.5691 88.8708 89.8439 89.1122C89.948 89.2042 90.1051 89.268 90.2571 89.268C90.3189 89.268 90.3817 89.2579 90.4413 89.2393C91.0548 88.6237 91.1727 88.1565 91.1529 87.6931C91.1322 87.2075 90.9407 86.7154 90.6312 86.2567C89.9053 85.1801 88.5266 84.2974 87.5964 84.0973C86.3223 83.8237 85.0572 84.1523 84.0427 84.8637C82.999 85.5958 82.2257 86.7327 81.9845 88.0137C81.9265 88.3223 81.9512 88.6552 82.0687 88.944C82.1834 89.2262 82.3834 89.4677 82.6773 89.6206ZM108.212 76.1551C108.976 76.9 109.881 77.0152 110.796 77.1179C111.305 77.1754 111.711 77.2219 112.111 77.3121C113.209 77.56 114.295 77.9334 115.285 78.4711C116.32 79.0333 117.449 79.7112 118.26 80.5796C118.453 80.7864 118.635 81.0032 118.818 81.2205C118.984 81.4187 119.144 81.6096 119.312 81.7936C119.506 82.0049 119.69 82.2263 119.873 82.4473C119.986 82.6335 120.009 82.6795 120.031 82.727C120.066 82.7987 120.106 82.8791 120.151 82.9651C120.213 83.083 120.287 83.212 120.363 83.3291C120.49 83.5432 120.559 83.6019 120.618 83.6281C120.716 83.6719 120.809 83.6935 120.899 83.6818C120.983 83.671 121.063 83.6303 121.142 83.5639C121.534 83.2323 121.65 82.688 121.638 82.1102C121.62 81.2335 121.297 80.2628 120.999 79.6661C120.305 78.2796 119.344 76.8383 118.188 75.8035C116.869 74.6223 115.426 73.7281 113.769 73.1119C112.739 72.7288 111.546 72.3772 110.424 72.4217C109.617 72.4536 108.846 72.6937 108.209 73.2933C107.818 73.6614 107.63 74.1849 107.63 74.7081C107.63 75.2417 107.825 75.7784 108.212 76.1551ZM81.1224 82.9764C81.171 83.0559 81.2383 83.1109 81.3133 83.1438C81.3917 83.1785 81.4793 83.1884 81.5635 83.1741C81.6472 83.1601 81.7267 83.1221 81.79 83.0642C81.8504 83.0085 81.8964 82.9347 81.9171 82.8446C82.4246 80.6151 83.4104 78.9564 85.5141 77.8867C86.5488 77.3606 87.7388 77.0262 88.8653 76.7597C89.1927 76.6822 89.5385 76.632 89.8869 76.5812C90.9786 76.4218 92.0782 76.2392 92.7899 75.3567C93.2187 74.8252 93.3988 74.1454 93.2971 73.5237C93.2013 72.9383 92.8591 72.4015 92.2373 72.0799C90.6894 71.2795 88.7655 72.0649 87.2021 72.7339C87.0862 72.7836 86.9724 72.8323 86.8611 72.8793C85.3322 73.5246 83.9378 74.3764 82.7916 75.5946C81.8822 76.561 81.0397 77.9896 80.7003 79.4593C80.4179 80.682 80.4844 81.9304 81.1224 82.9764Z" fill="#262626"/>
<path fill-rule="evenodd" clip-rule="evenodd" d="M75.8244 94.2436C78.491 97.0755 82.9424 97.8882 86.4901 96.3694C95.5995 92.4576 91.1408 80.2564 84.1155 76.9798C83.2378 76.755 82.0657 76.2215 80.9967 76.1005C80.9001 76.0518 80.6897 76.1929 80.4347 76.0595C72.6881 76.9484 70.924 89.3081 75.8244 94.2436ZM105.206 94.9685C108.197 99.0455 113.757 100.303 118.3 98.4081C127.274 94.7754 124.091 83.956 117.951 79.7144C104.98 74.705 99.6242 87.4511 105.206 94.9685ZM124.661 85.9348C124.669 85.9308 124.678 85.9287 124.686 85.9247C124.639 85.9032 124.591 85.8818 124.544 85.8599C124.56 85.9012 124.576 85.9421 124.591 85.9834C124.614 85.9669 124.635 85.9477 124.661 85.9348ZM69.6502 81.5277C70.3824 81.5293 71.4402 81.653 72.0463 82.1752C73.5412 76.9938 79.0587 72.1984 83.8572 75.6951C87.6359 76.9441 90.4399 79.7142 92.0336 83.3969C94.907 81.6402 99.4252 82.3903 101.917 84.7134C103.549 79.1713 107.565 77.2306 112.345 76.9441C117.563 76.0658 122.763 81.2738 124.386 85.4518C125.735 85.294 127.751 84.8527 129.02 85.7084C137.258 83.4881 151.66 82.2639 153.335 83.4975C154.528 83.9682 155.183 86.8635 153.516 87.0197C152.064 86.8078 153.686 84.8982 152.221 84.6899C144.419 84.1928 136.846 85.8078 129.126 86.4854C128.437 87.4383 126.21 87.757 125.022 87.3742C126.893 94.4614 122.854 99.2832 116.802 100.728C107.431 102.94 99.2785 94.324 101.729 85.3621C98.8902 83.9106 95.625 83.9729 92.5326 84.7375C97.7 104.284 67.0711 103.407 71.8548 82.8449C68.6713 84.4725 67.9799 81.8562 69.6502 81.5277Z" fill="#262626"/>
<path d="M100.139 157.625C89.5389 147.796 84.684 141.914 80.2744 131.071C80.1268 130.708 79.6205 130.677 79.4357 131.023L74.7019 139.873C74.6466 139.977 74.6334 140.099 74.6641 140.212C77.9853 152.429 81.0894 159.305 87.1368 171.075C87.2962 171.385 87.7319 171.414 87.9293 171.127C91.9242 165.308 94.6215 162.188 100.139 157.625Z" fill="white"/>
<path d="M145.457 137.894C145.518 137.793 145.538 137.67 145.512 137.555L143.655 129.301C143.578 128.959 143.157 128.829 142.895 129.063C128.461 141.931 118.921 148.228 100.139 157.625C107.319 162.02 110.666 165.302 116.043 171.416C116.211 171.608 116.509 171.625 116.7 171.455C130.305 159.333 136.961 152.008 145.457 137.894Z" fill="white"/>
<path d="M100.139 157.625C118.921 148.228 128.461 141.931 142.895 129.063C143.157 128.829 143.578 128.959 143.655 129.301L145.512 137.555C145.538 137.67 145.518 137.793 145.457 137.894C136.961 152.008 130.305 159.333 116.7 171.455C116.509 171.625 116.211 171.608 116.043 171.416C110.666 165.302 107.319 162.02 100.139 157.625ZM100.139 157.625C89.5389 147.796 84.684 141.914 80.2744 131.071C80.1268 130.708 79.6205 130.677 79.4357 131.023L74.7019 139.873C74.6466 139.977 74.6334 140.099 74.6641 140.212C77.9853 152.429 81.0894 159.305 87.1368 171.075C87.2962 171.385 87.7319 171.414 87.9293 171.127C91.9242 165.308 94.6215 162.188 100.139 157.625Z" stroke="#262626" stroke-width="2.98924"/>
<path d="M79.7294 131.359C79.5467 131.068 79.7366 130.686 80.0791 130.656L91.8188 129.636C92.1572 129.606 92.4097 129.941 92.2881 130.258L87.5922 142.508C87.4565 142.863 86.9747 142.909 86.7732 142.588L79.7294 131.359Z" fill="white"/>
<path d="M143.159 129.75C143.504 129.494 143.341 128.947 142.912 128.922L129.489 128.12C129.153 128.1 128.91 128.436 129.034 128.749L132.34 137.064C132.452 137.344 132.799 137.443 133.041 137.263L143.159 129.75Z" fill="white"/>
<path d="M79.7294 131.359C79.5467 131.068 79.7366 130.686 80.0791 130.656L91.8188 129.636C92.1572 129.606 92.4097 129.941 92.2881 130.258L87.5922 142.508C87.4565 142.863 86.9747 142.909 86.7732 142.588L79.7294 131.359Z" stroke="#262626" stroke-width="2.98924"/>
<path d="M143.159 129.75C143.504 129.494 143.341 128.947 142.912 128.922L129.489 128.12C129.153 128.1 128.91 128.436 129.034 128.749L132.34 137.064C132.452 137.344 132.799 137.443 133.041 137.263L143.159 129.75Z" stroke="#262626" stroke-width="2.98924"/>
<path d="M100.369 169.467C101.321 169.467 102.094 168.694 102.094 167.742C102.094 166.79 101.321 166.017 100.369 166.017C99.4165 166.017 98.6444 166.79 98.6444 167.742C98.6444 168.694 99.4165 169.467 100.369 169.467Z" fill="#262626"/>
<path d="M100.369 177.055C101.321 177.055 102.094 176.282 102.094 175.33C102.094 174.378 101.321 173.605 100.369 173.605C99.4165 173.605 98.6444 174.378 98.6444 175.33C98.6444 176.282 99.4165 177.055 100.369 177.055Z" fill="#262626"/>
</svg>
