<svg width="467" height="763" viewBox="0 0 467 763" fill="none" xmlns="http://www.w3.org/2000/svg">
<path d="M448.233 311.777C448.26 311.93 448.255 312.087 448.22 312.238C448.185 312.39 448.119 312.532 448.028 312.658C447.936 312.784 447.82 312.89 447.687 312.969C447.554 313.049 447.405 313.102 447.251 313.123C300.588 334.285 152.788 366.022 2.47046 372.341C2.08802 372.339 1.71927 372.199 1.43293 371.945C1.14662 371.692 0.962195 371.343 0.914106 370.963C0.818633 370.388 0.947126 369.797 1.27331 369.314C1.59946 368.83 2.09857 368.489 2.66796 368.362C145.417 335.833 298.68 327.424 445.665 309.653C446.283 309.612 446.894 309.809 447.371 310.204C447.849 310.599 448.157 311.162 448.233 311.777Z" fill="#F2F062"/>
<path d="M457.79 425.882C457.873 426.013 457.93 426.159 457.956 426.312C457.982 426.466 457.977 426.623 457.941 426.774C457.905 426.925 457.839 427.068 457.746 427.193C457.654 427.318 457.538 427.423 457.404 427.503C330.306 503.687 206.244 590.063 70.041 653.968C69.6876 654.114 69.2931 654.127 68.931 654.004C68.569 653.881 68.2641 653.63 68.0731 653.299C67.7627 652.805 67.6531 652.211 67.7671 651.638C67.881 651.066 68.2098 650.559 68.6858 650.222C187.782 565.066 325.895 498.095 454.6 424.915C455.154 424.638 455.794 424.585 456.387 424.764C456.98 424.944 457.482 425.344 457.79 425.882Z" fill="#F2F062"/>
<path d="M466.177 196.273C427.646 194.964 389.269 191.443 350.961 187.179C341.39 186.058 331.814 184.952 322.269 183.659C312.723 182.365 303.136 181.24 293.613 179.791L265.011 175.435L236.492 170.678C231.715 169.917 226.96 169.13 222.228 168.25L207.953 165.803C198.44 164.179 188.897 162.676 179.414 160.864L165.213 158.047C160.499 157.026 155.771 156.067 151.057 154.982C141.655 152.834 132.347 150.239 123.061 147.618C85.9466 136.945 49.4217 123.989 14.3951 106.933L15.0716 104.686C24.8129 105.639 34.3519 107.157 43.8984 108.644C53.4449 110.132 62.8453 112.02 72.3353 113.607C91.2745 116.949 109.985 120.964 128.741 124.73C138.111 126.676 147.411 128.913 156.71 131.084C161.348 132.216 166.002 133.351 170.64 134.483L184.515 138.11C193.725 140.713 203.025 143.014 212.287 145.403C221.55 147.792 230.831 150.17 240.194 152.211L268.212 158.496L296.327 164.384C305.683 166.456 315.098 168.219 324.491 170.138C333.884 172.058 343.303 173.805 352.721 175.553C390.404 182.642 428.27 188.983 466.342 193.95L466.177 196.273Z" fill="#F2F062"/>
<path fill-rule="evenodd" clip-rule="evenodd" d="M152.635 670.182C151.018 662.649 158.418 660.104 163.083 658.428C166.426 656.259 178.809 648.752 188.39 639.485C196.231 631.902 201.568 622.182 203.79 621.255C203.79 621.255 206.077 619.929 206.314 618.944C207.706 613.171 206.545 607.788 206.314 604.286C201.854 603.115 198.28 601.655 195.606 599.611C194.827 599.871 193.658 600.204 193.309 599.064C190.895 582.947 189.851 567.019 187.887 550.889C180.446 489.453 179.607 417.679 192.405 361.567C192.541 358.787 192.297 356.273 192.051 353.884C190.32 353.698 189.273 352.022 187.859 351.021C185.666 349.276 183.07 347.938 183.175 344.891C182.656 344.496 182.715 344.274 182.973 343.772C181.299 336.577 188.763 328.995 190.874 323.064C187.036 285.539 192.256 250.078 189.345 212.544C185.666 211.005 188.14 201.385 188.39 197.417C190.428 171.853 203.717 146.578 227.647 138.227C229.015 137.95 231.071 136.386 232.203 137.436C234.39 136.57 237.301 138.278 238.994 136.311L238.977 136.298C240.403 134.321 241.042 131.808 241.51 129.432C241.432 130.102 241.301 130.766 241.14 131.415C245.265 119.788 246.305 116.679 259.585 116.132C265.568 116.052 273.454 116.231 276.942 121.937C278.371 124.59 277.935 127.635 278.822 130.427C280.45 135.55 287.479 133.075 291.17 135.735C320.705 145.208 344.932 164.544 352.895 195.58C354.523 199.321 356.369 203.044 357.73 206.904C357.941 207.477 358.52 209.417 357.129 210.309L356.456 210.741C365.321 252.176 365.909 287.091 336.125 314.715C333.89 326.585 339.64 342.794 337.43 354.319C338.689 356.105 337.092 357.545 335.482 357.66C335.327 357.747 334.7 358.021 334.529 358.099C337.091 394.271 326.333 443.021 321.592 462.26C320.946 473.812 324.889 483.302 333 489.598C341.961 495.119 359.678 520.047 356.394 546.196C360.232 546.95 364.043 547.361 367.725 548.805C383.838 545.961 383.678 577.024 384.705 587.946C386.444 606.233 387.525 632.739 370.152 644.445C365.575 647.765 356.295 651.651 351.54 646.337C349.981 644.466 349.591 642.656 350.204 640.745C342.352 629.651 344.468 615.139 343.747 602.127C341.469 601.989 339.087 603.058 336.884 602.669C334.624 600.676 342.871 601.218 343.727 601.101C343.639 599.096 343.478 596.983 343.269 594.959C341.976 595.219 340.318 595.84 339.074 595.886C338.338 596.065 337.818 595.051 338.262 594.527C339.233 593.6 341.708 593.745 343.101 593.612C342.866 591.919 342.578 590.14 342.259 588.5C340.555 588.44 338.795 589.526 337.182 589.303C338.403 588.489 340.695 588.737 342.184 588.199C341.216 582.924 339.243 577.916 337.409 572.981C332.91 574.837 329.028 574.911 324.636 574.354C322.839 574.63 321.963 574.262 321.672 572.016L321.787 571.873C318.305 551.04 307.071 531.18 286.203 508.658C282.081 504.045 277.423 498.612 274.319 492.539C268.083 479.901 267.018 465.955 262.213 452.83C257.727 439.639 251.593 427.019 245.833 414.515C244.989 420.924 243.854 427.498 242.675 433.784C237.484 456.054 237.987 479.814 241.807 502.208C247.459 533.574 244.735 565.088 245.992 596.675C245.975 598.496 245.749 600.151 246.016 602.046C246.052 602.193 245.983 602.366 245.81 602.361L245.483 602.37C242.767 604.359 239.015 604.718 235.823 605.799C234.483 606.859 234.86 608.54 234.737 609.85C234.387 615.5 233.938 621.173 234.495 626.995C236.958 631.715 240.017 630.74 240.643 637.393C241.19 644.988 242.159 653.065 238.46 659.828L239.86 660.069C241.937 664.429 240.669 667.257 235.788 669.102C211.69 678.55 177.781 687.127 152.635 679.996C152.179 680.449 151.515 679.978 150.995 679.267C150.494 678.582 150.128 677.674 150.211 677.147C150.641 674.834 150.05 670.61 152.635 670.182Z" fill="white"/>
<path fill-rule="evenodd" clip-rule="evenodd" d="M151.487 677.75C173.141 687.472 212.461 675.204 233.738 668.106C239.474 666.034 241.385 665.629 239.778 659.016C236.771 664.82 230.302 666.223 224.105 667.386C203.114 672.171 181.713 681.006 159.264 676.694C155.969 676.177 152.708 674.393 151.749 671.1C151.158 672.495 151.524 674.386 151.287 675.919C151.243 676.531 151.23 677.193 151.487 677.75ZM239.065 641.582C238.674 637.682 238.049 633.564 235.83 630.12C236.072 635.691 232.726 645.16 225.395 642.005C223.319 640.906 222.155 638.689 220.82 636.91C216.379 631.055 210.686 625.971 204.254 622.279C200.676 622.895 199.138 629.437 196.832 632.175C199.402 633.32 204.061 635.93 204.533 638.632C201.322 637.551 198.368 635.539 195.001 634.833C193.923 636.321 192.78 637.765 191.58 639.159C193.148 639.851 199.471 643.047 199.43 644.643C196.011 644.086 192.697 642.412 189.26 641.725C187.731 643.242 186.339 644.873 184.817 646.395C187.117 647.342 189.545 648.4 190.8 650.607C190.86 650.706 190.713 650.819 190.632 650.722C188.91 648.646 185.946 648.264 183.378 647.797C179.437 651.509 175.024 654.781 170.085 657.23C165.143 659.934 157.633 660.55 155.667 666.411C154.095 672.272 158.999 672.898 163.525 673.312C168.103 673.962 172.713 674.061 177.261 673.682C191.479 673.089 204.919 668.904 218.355 665.245C234.781 662.222 240.112 659.775 239.065 641.582ZM234.248 607.314C234.287 607.572 234.321 607.829 234.358 608.089C234.404 607.815 234.436 607.539 234.503 607.27C234.418 607.284 234.333 607.3 234.248 607.314ZM207.708 620.4C214.002 625.056 220.146 630.241 224.517 636.733C227.41 642.017 231.259 638.8 232.215 634.569C232.99 625.123 232.323 616.965 233.232 607.461C224.528 608.648 215.588 607.916 207.087 605.817C208.11 610.059 208.58 611.669 208.612 616.022C208.557 617.457 208.577 619.207 207.708 620.4ZM193.619 272.678C193.433 286.582 193.346 300.491 193.829 314.391C206.069 282.756 202.323 248.428 204.061 215.176C200.444 213.971 196.558 213.445 192.831 212.93C194.328 233.569 193.941 252.006 193.619 272.678ZM262.793 342.925C292.846 328.556 297.004 291.715 320.8 271.418C321.568 270.686 322.205 269.935 322.575 269.049C320.869 251.811 320.993 236.697 318.977 219.476C316.723 215.388 315.833 210.64 314.155 206.289C313.276 203.64 312.21 201.017 311.957 198.237C311.745 197.321 313.175 196.924 313.442 197.788C316.618 203.96 318.197 210.824 320.568 217.331C320.901 217.464 321.345 217.358 321.476 217.009C321.497 217.094 321.52 217.179 321.541 217.264C331.743 213.277 342.263 209.563 353.378 209.591C353.371 209.557 353.362 209.52 353.355 209.485C354.041 209.506 355.478 209.451 355.048 208.457C345.278 172.828 327.735 148.406 290.524 136.805C295.281 164.451 226.037 166.052 226.993 140.319C200.908 151.526 189.671 183.003 192.628 209.506C195.107 208.837 201.562 211.47 204.08 212.999C204.593 202.238 203.318 189.25 204.068 179.627C208.037 228.692 215.443 287.401 190.966 331.92C189.377 334.904 187.935 337.76 188 341.265C187.809 341.458 187.79 341.796 188.023 342.044C188.023 342.06 188.023 342.076 188.025 342.092C188.036 342.095 188.05 342.095 188.064 342.095C188.774 342.941 189.119 343.109 190.147 343.295C192.575 343.785 195.13 344.157 197.354 345.284C221.045 357.722 239.626 341.688 262.793 342.925ZM255.306 365.533C254.161 367.72 252.238 369.479 249.96 370.578C250.241 371.13 250.337 371.751 250.367 372.332C254.471 373.172 253.317 375.119 256.09 376.048C257.904 376.55 259.65 376.763 261.218 377.863C266.555 382.834 267.879 382.468 273.607 378.095C273.529 377.699 281.324 370.086 283.738 365.83C285.75 362.279 287.857 358.704 290.94 355.958C306.04 340.497 322.127 325.905 336.744 310.016C366.039 280.825 360.449 247.725 353.721 211.263C342.861 212.56 331.941 215.165 322.161 219.948C325.61 236.041 325.831 250.629 327.317 266.959C327.765 268.978 327.259 272.866 324.399 271.97C298.105 292.846 295.049 335.746 260.544 348.152C246.481 353.868 252.416 358.508 247.769 369.302C250.326 368.833 252.607 366.69 253.706 364.639C254.25 363.62 255.837 364.517 255.306 365.533ZM334.783 352.868C335.378 348.777 334.914 344.705 334.886 340.607C335.206 333.145 334.958 325.872 334.67 318.385C326.425 326.928 317.852 335.18 309.432 343.564C318.4 344.695 328.742 345.627 334.783 352.868ZM334.935 358.885C334.794 358.84 334.657 358.777 334.53 358.702C334.562 361.912 334.512 365.121 334.394 368.327C334.62 365.181 334.799 362.033 334.935 358.885ZM345.022 587.056C347.441 586.87 357.786 586.514 359.028 588.137C357.63 588.728 355.708 588.401 354.204 588.468C351.283 588.588 348.37 588.845 345.48 589.254C345.696 590.381 345.891 591.506 346.052 592.635C348.968 592.913 354.645 593.039 356.496 595.079C353.194 595.605 349.757 595.132 346.443 595.789C346.604 597.335 346.722 598.882 346.809 600.43C348.129 600.57 355.891 601.855 355.884 603.076C352.978 603.462 349.899 602.954 346.937 603.242C347.579 612.515 345.404 640.52 358.078 642.233C369.159 641.649 374.02 623.69 375.526 615.075C378.865 595.001 378.292 573.598 371.675 554.248C369.311 548.868 362.877 547.934 357.437 547.656C357.23 548.566 357.025 549.461 356.795 550.362C359.154 555.711 359.906 561.733 359.971 567.52C359.472 575.84 349.207 582.025 341.753 576.53C343.146 579.933 344.222 583.474 345.022 587.056ZM359.685 646.903C381.634 642.185 385.234 616.767 383.726 598.077C382.496 585.067 383.974 557.638 371.965 549.994C387.486 564.163 386.138 660.624 351.741 643.787C352.599 646.505 357.009 647.289 359.685 646.903ZM355.386 556.214C355.346 555.878 355.303 555.545 355.257 555.209C352.822 561.825 348.651 568.111 342.44 571.942C344.818 574.908 349.449 575.791 352.574 573.363C358.023 569.277 355.751 561.885 355.386 556.214ZM280.572 133.595C280.616 133.671 280.662 133.747 280.708 133.821C281.011 133.841 281.317 133.869 281.627 133.904C281.275 133.798 280.924 133.699 280.572 133.595ZM238.863 136.024C238.875 135.989 238.886 135.955 238.895 135.922C238.868 135.938 238.84 135.957 238.81 135.975C238.833 135.989 238.847 136.005 238.863 136.024ZM149.356 673.723C149.415 672.077 149.438 669.952 151.365 669.368C150.492 662.277 156.378 658.239 162.559 656.275C167.829 653.052 173.805 650.798 178.648 646.912C176.399 646.489 174.15 645.979 172.152 645.001C170.644 644.263 171.37 641.805 173.005 642.033C175.9 642.415 178.501 643.886 181.221 644.909C182.766 643.64 184.263 642.316 185.677 640.913C183.916 640.573 181.676 640.697 180.651 638.949C180.331 638.402 180.474 637.834 180.86 637.413C182.644 635.606 186.181 637.411 188.397 637.935C189.462 636.71 190.49 635.457 191.499 634.192C189.825 634.038 185.47 634.344 186.323 631.58C187.958 629.418 191.474 630.715 193.838 631.159C196.836 627.473 197.802 621.816 202.489 619.788C202.656 618.894 203.824 618.963 204.604 619.227C205.751 613.75 205.664 610.965 205.328 605.35C201.849 604.387 198.397 603.122 195.505 601.048C194.176 601.439 192.564 600.988 192.288 599.427C191.46 593.925 190.998 587.576 190.419 581.956H190.207C189.106 571.705 188.218 561.425 186.972 551.201C179.837 492.104 178.282 419.972 191.49 361.587C191.594 359.375 191.437 357.161 191.214 354.965C189.639 354.544 189.851 353.006 188.547 352.116C186.123 350.141 183.658 349.035 183.435 345.588C182.945 345.121 182.888 344.415 183.157 343.803C182.529 340.264 183.454 336.751 185.337 333.693C187.402 330.209 188.202 326.693 189.924 323.037C186.158 286.187 191.267 250.472 188.473 213.438C184.891 211.541 187.14 201 187.473 197.487C189.565 174.412 200.338 148.935 223.243 139.337C224.85 137.98 227.095 137.52 229.058 136.773C230.385 136.12 232.544 135.554 233.452 137.074C234.416 136.626 237.518 136.283 238.58 135.506C238.778 135.361 238.904 135.203 238.934 135.026C239.012 135.028 239.104 135.012 239.203 134.991C240.183 133.607 241.116 123.965 242.324 124.653C243.641 127.964 242.728 131.705 241.468 135.049C240.599 138.006 239.408 145.612 234.791 143.667C233.995 143.271 234.487 142.244 235.2 142.161C237.389 141.535 237.877 138.318 238.723 136.433C237.72 137.265 233.153 138.514 232.654 138.778C222.749 161.515 282.642 160.322 287.35 144.646C290.708 139.231 287.81 136.297 281.825 135.428C286.224 140.317 280.655 141.402 278.537 136.608C276.511 133.175 275.589 129.003 276.281 125.053C275.925 123.667 275.623 121.813 277.698 122.186C277.769 122.002 277.882 122.147 277.838 122.278C278.595 123.483 278.068 125.214 278.337 126.605C278.564 128.882 279.211 131.112 280.307 133.126C282.342 133.515 284.368 133.931 286.385 134.386C287.594 131.928 295.44 136.831 297.546 137.408C325.528 145.674 346.807 167.689 354.234 195.457C355.891 199.154 357.681 202.87 359.037 206.682C359.644 208.333 359.644 210.382 357.977 211.451C366.101 248.718 368.083 287.546 337.393 315.497C336.696 318.523 337.16 321.733 337.181 324.815C336.924 331.832 342.921 355.885 335.955 358.996C337.991 390.153 330.359 432.547 322.962 462.605C322.414 472.936 325.53 482.334 333.916 488.853C349.86 500.773 356.577 520.67 358.442 539.631C358.706 541.574 358.446 543.551 358.009 545.46C361.465 546.104 364.7 546.522 368.056 547.789C386.559 544.243 385.239 583.998 386.655 595.794C387.764 613.233 387.072 634.137 371.047 645.556C365.66 649.391 356.149 653.075 350.899 647.266C349.414 645.489 348.605 643.41 349.189 641.138C341.663 630.117 343.44 616.031 342.877 603.49C340.906 603.559 338.759 604.437 336.818 603.955C335.323 603.559 335.132 601.641 336.397 600.878C338.223 599.843 340.704 600.236 342.746 600.167C342.684 598.967 342.594 597.767 342.479 596.567C340.541 597.04 337.763 598.178 337.186 595.47C336.953 593.002 340.069 592.814 342.01 592.708C341.874 591.777 341.722 590.85 341.55 589.926C340.065 590.075 338.497 591.023 337.036 590.57C336.209 590.243 335.921 589.406 336.526 588.728C337.65 587.626 339.573 587.847 341.06 587.505C340.157 583.078 338.524 578.845 336.951 574.612C334.104 575.601 331.021 576.254 327.983 576.005C326.409 575.674 324.688 575.58 323.097 575.794C321.327 575.325 320.918 573.432 320.685 571.887C320.72 571.832 320.754 571.779 320.793 571.731C316.703 547.909 302.028 527.329 285.573 509.598C281.041 504.526 276.596 499.251 273.517 493.226C267.263 480.635 266.141 466.468 261.356 453.387C257.325 441.508 251.937 430.117 246.656 418.709C244.538 433.734 240.583 448.512 240.13 463.748C239.44 483.024 243.687 502.019 245.499 521.141C248.117 541.362 246.722 561.685 246.888 581.956H246.776C246.819 586.845 246.951 591.942 247.256 596.817C247.244 598.599 247.014 600.278 247.267 602.06C247.407 603.046 246.699 603.665 245.954 603.686C243.218 605.481 239.78 606.118 236.635 606.886C235.763 607.553 236.14 609.195 235.986 610.2C235.648 615.845 235.202 620.103 235.752 625.797C238.829 630.345 241.045 629.618 241.901 636.533C242.372 643.753 243.409 651.557 240.254 658.11C241.666 658.432 242.202 662.741 241.99 663.88C241.632 667.096 238.796 668.113 236.055 669.223C216.025 676.729 173.465 689.083 152.883 680.587C151.409 681.422 149.765 679.787 149.289 678.469C148.659 676.867 149.238 675.315 149.356 673.723Z" fill="#262626"/>
<path fill-rule="evenodd" clip-rule="evenodd" d="M225.245 58.4562C226.133 53.0848 223.219 51.9705 225.245 46.8647C229.748 37.404 242.019 37.8117 251.023 37.0842C261.067 36.6993 271.232 38.0252 280.491 42.0506C282.702 43.012 284.829 44.1426 286.869 45.4273C288.632 46.5381 288.389 48.6504 287.278 49.8026C295.295 61.1553 290.709 76.3939 297.106 88.344C298.288 90.4799 299.851 92.3953 300.878 94.6179C302.439 97.9965 302.539 102.837 298.998 105.081C294.012 107.758 291.229 102.458 288.779 110.14C276.542 136.926 251.938 138.435 228.582 124.47C226.561 123.346 224.499 122.075 222.973 120.309C219.509 116.412 219.917 110.93 219.84 106.063C219.798 103.21 219.791 100.357 219.818 97.5042C219.927 85.9478 223.757 69.9172 225.245 58.4562Z" fill="white"/>
<path fill-rule="evenodd" clip-rule="evenodd" d="M274.993 26.3301C260.89 19.9331 244.895 17.5072 229.512 19.0984C221.92 19.8826 214.427 21.5649 207.296 24.2977L206.671 24.5392C204.911 25.2167 203.013 25.8892 201.675 27.2683C200.119 28.8709 199.682 31.2945 200.795 33.2743C201.659 34.8126 203.214 35.9161 204.872 36.505C204.288 36.9833 203.733 37.5167 203.214 38.1123C202.338 39.1102 202.271 40.5333 203.214 41.5177C205.03 43.4148 207.387 44.7873 209.926 45.4452C209.641 46.8225 209.795 48.347 210.406 49.7198C212.162 53.6603 217.106 54.1298 220.91 53.8958L221.025 53.8886L221.237 56.3099C221.349 57.5999 222.122 58.6001 223.433 58.7979C223.479 58.8048 223.525 58.8094 223.571 58.8137C221.496 66.3146 220.243 74.0473 219.087 81.7345C218.482 85.7472 217.942 89.7691 217.424 93.7938L217.252 95.1355C216.7 99.4745 216.01 103.857 215.771 108.228C215.557 112.195 216.314 115.982 218.758 119.183C220.951 122.052 223.943 124.202 227.16 125.798C234.428 129.406 242.078 132.092 250.117 133.338L250.653 133.42C253.757 133.894 256.954 134.293 260.023 133.435C262.72 132.68 265.549 130.735 264.939 127.61C264.735 126.555 263.258 126.509 262.752 127.325L262.636 127.512C262.029 128.474 261.364 129.369 260.306 129.866C259.067 130.45 257.629 130.613 256.275 130.629C252.493 130.673 248.554 129.73 244.911 128.785C238.11 127.019 231.124 124.14 225.553 119.778C223.182 117.925 221.278 115.607 220.607 112.625C219.776 108.948 220.54 104.929 220.917 101.234C221.693 93.6087 222.617 85.9981 223.591 78.396L223.787 76.8759C224.607 70.5203 225.47 64.1624 225.879 57.77C226.049 57.5378 226.164 57.2734 226.21 56.9836L226.274 56.5674C226.33 56.211 226.339 55.8845 226.3 55.5833C226.298 54.429 226.265 53.2816 226.199 52.127C226.187 51.9203 226.178 51.7134 226.171 51.5087C227.371 51.7732 228.581 51.987 229.795 52.1687C238.33 53.454 246.999 53.7759 255.604 53.1367C259.897 52.8169 264.157 52.2675 268.404 51.58C270.566 51.2305 272.72 50.8442 274.868 50.4119C276.42 50.1015 277.94 49.6807 279.467 49.2852C281.042 51.5777 281.893 54.3991 281.727 57.1699C281.541 60.3316 279.435 63.1989 280.026 66.4296C280.58 69.4531 283.171 70.3906 285.728 71.1393L286.816 71.4536C287.653 71.6978 288.26 71.9337 288.412 72.9393C288.671 74.6661 288.352 76.6091 288.285 78.3452C288.205 80.3986 288.099 82.4519 288.051 84.5053C288.025 85.5676 287.984 86.6346 287.986 87.6969C287.989 88.4511 288.101 88.9662 288.393 89.4534C288.168 89.7365 287.966 90.0423 287.786 90.3665C287.729 90.4723 287.871 90.5847 287.956 90.4976C288.184 90.2607 288.426 90.0469 288.681 89.8558C288.809 90.0147 288.959 90.1757 289.134 90.3481L289.147 90.3297C289.695 90.8747 290.564 90.9276 291.243 90.3481L291.421 90.1938C291.917 89.7583 292.258 89.3959 292.397 88.6764C292.404 88.6396 292.411 88.6029 292.415 88.5661C293.677 88.5224 294.96 88.8211 296.096 89.449C297.897 90.4447 299.164 91.8634 299.913 93.6156C299.614 93.9651 299.265 94.2778 298.858 94.5399C298.8 94.579 298.851 94.6641 298.913 94.6342C299.329 94.4388 299.702 94.1973 300.035 93.9145C300.304 94.6043 300.493 95.3447 300.608 96.1288C301.013 98.8973 300.291 102.28 297.789 103.857C296.706 104.54 295.469 104.91 294.186 104.915C293.56 104.917 293.02 104.811 292.413 104.662C292.001 104.561 291.592 104.414 291.162 104.414C290.794 104.414 290.454 104.506 290.139 104.69L290.226 104.697C290.438 104.717 290.397 104.726 290.102 104.726C289.182 104.765 288.656 105.699 289.078 106.511L289.134 106.636C289.146 106.661 289.156 106.682 289.163 106.699L289.197 106.914C289.2 106.935 289.204 106.956 289.207 106.977L289.22 107.021C289.222 107.028 289.225 107.035 289.228 107.042L287.849 109.145C286.157 111.719 284.428 114.282 282.461 116.633C281.081 118.281 279.619 119.898 278.073 121.395C276.685 122.74 275.02 123.388 273.447 124.446C272.608 125.007 272.362 126.182 273.125 126.939C275.365 129.162 278.536 127.396 280.373 125.589C282.111 123.876 283.613 121.816 284.907 119.753C287.204 116.085 289.032 112.186 289.833 107.952C290.166 108.258 290.591 108.449 291.022 108.599C291.884 108.897 292.834 109.022 293.744 109.054C295.489 109.111 297.237 108.688 298.807 107.939C305.197 104.892 306.136 95.7678 302.229 90.3872C302.756 88.8595 303.05 87.2021 303.37 85.7884L303.515 85.1567C305.131 78.0991 306.215 70.6686 303.351 63.7531C302.983 62.8609 302.569 61.9917 302.079 61.1594C301.686 60.4902 301.01 59.7774 300.824 59.0163C300.41 57.3446 302.965 55.5879 303.71 54.2611C304.586 52.7044 304.71 50.8672 303.517 49.4436C303.365 49.2645 303.199 49.0987 303.02 48.9541C304.151 46.903 304.204 44.3231 302.714 42.2996C301.735 40.9659 300.24 40.0323 298.607 39.7495C297.609 39.577 296.409 39.6414 295.312 39.9495C289.306 34.3734 282.454 29.7148 274.993 26.3301ZM298.056 96.1012C296.453 94.6871 294.682 93.9467 292.498 94.1329C290.302 94.3213 287.657 95.2298 286.368 97.113C285.349 98.6007 287.425 100.783 288.92 99.6653C290.281 98.6467 291.19 97.497 292.879 96.9497C294.397 96.46 296.276 96.1449 297.865 96.4255C298.039 96.4554 298.214 96.2392 298.056 96.1012Z" fill="#262626"/>
<path fill-rule="evenodd" clip-rule="evenodd" d="M243.726 114.304C245.42 114.794 247.238 114.838 248.965 114.332C250.531 113.872 252.139 112.86 253.292 111.522C254.315 110.333 254.979 108.888 254.952 107.346C254.949 107.17 254.886 107.023 254.79 106.909C254.685 106.786 254.54 106.702 254.384 106.665C254.223 106.627 254.054 106.641 253.909 106.707C253.778 106.766 253.666 106.867 253.596 107.014C253.419 107.247 253.243 107.476 253.065 107.699C251.641 109.458 250.262 110.772 248.12 111.243C246.958 111.499 245.798 111.386 244.733 110.995C243.593 110.578 242.562 109.843 241.755 108.903C241.39 108.478 240.959 108.305 240.538 108.302C240.061 108.299 239.589 108.52 239.234 108.875C238.884 109.223 238.65 109.697 238.629 110.192C238.61 110.627 238.752 111.081 239.129 111.487C240.373 112.821 241.983 113.799 243.726 114.304ZM243.778 92.2773C242.042 93.3327 239.396 95.7937 241.264 98.4105C243.463 100.717 246.629 98.0722 248.189 96.8758C249.635 95.9487 251.26 98.3332 249.918 99.416C238.646 107.762 234.071 92.5532 242.9 91.0363C243.872 90.8691 244.233 91.9507 243.778 92.2773ZM260.021 87.6331C260.579 87.2763 261.236 87.1537 261.963 87.4848C262.532 87.7433 263.529 88.6052 264.223 89.7381C264.698 90.5135 265.035 91.4228 264.965 92.3701C264.948 92.5902 265.03 92.7523 265.158 92.8723C265.259 92.9671 265.405 93.0365 265.577 93.0584C265.723 93.0768 265.886 93.0602 266.019 93.0188C266.271 92.9399 266.405 92.776 266.455 92.6424C266.941 91.352 266.732 89.9118 266.187 88.6127C265.453 86.8594 264.118 85.3907 263.243 84.9171C261.747 84.1065 259.982 84.0693 258.483 84.8949C257.208 85.5978 256.41 86.7324 255.617 87.889C255.448 88.1351 255.281 88.379 255.108 88.6188C254.761 89.0991 254.727 89.5758 254.861 89.9844C255.009 90.4369 255.389 90.8189 255.863 91.0189C256.301 91.2038 256.81 91.2299 257.26 91.0399C257.64 90.8794 257.989 90.5669 258.21 90.0365C258.582 89.1429 259.202 88.1574 260.021 87.6331ZM231.677 89.6206C232.059 89.8198 232.359 89.8801 232.783 89.753C233.017 89.6826 233.249 89.5476 233.43 89.3662C233.61 89.1864 233.74 88.9629 233.79 88.7148C233.914 88.1024 234.249 87.5294 234.726 87.156C235.134 86.8366 235.649 86.6674 236.22 86.7628C236.837 86.8658 237.424 87.2611 237.828 87.7272C237.964 87.8831 238.07 88.0601 238.176 88.236C238.375 88.5651 238.569 88.8708 238.844 89.1122C238.948 89.2042 239.105 89.268 239.257 89.268C239.319 89.268 239.382 89.2579 239.441 89.2393C240.055 88.6237 240.173 88.1565 240.153 87.6931C240.132 87.2075 239.941 86.7154 239.631 86.2567C238.905 85.1801 237.527 84.2974 236.596 84.0973C235.322 83.8237 234.057 84.1523 233.043 84.8637C231.999 85.5958 231.226 86.7327 230.984 88.0137C230.927 88.3223 230.951 88.6552 231.069 88.944C231.183 89.2262 231.383 89.4677 231.677 89.6206ZM257.212 76.1551C257.976 76.9 258.881 77.0152 259.796 77.1179C260.305 77.1754 260.711 77.2219 261.111 77.3121C262.209 77.56 263.295 77.9334 264.285 78.4711C265.32 79.0333 266.449 79.7112 267.26 80.5796C267.453 80.7864 267.635 81.0032 267.818 81.2205C267.984 81.4187 268.144 81.6096 268.312 81.7936C268.506 82.0049 268.69 82.2263 268.873 82.4473C268.986 82.6335 269.009 82.6795 269.031 82.727C269.066 82.7987 269.106 82.8791 269.151 82.9651C269.213 83.083 269.287 83.212 269.363 83.3291C269.49 83.5432 269.559 83.6019 269.618 83.6281C269.716 83.6719 269.809 83.6935 269.899 83.6818C269.983 83.671 270.063 83.6303 270.142 83.5639C270.534 83.2323 270.65 82.688 270.638 82.1102C270.62 81.2335 270.297 80.2628 269.999 79.6661C269.305 78.2796 268.344 76.8383 267.188 75.8035C265.869 74.6223 264.426 73.7281 262.769 73.1119C261.739 72.7288 260.546 72.3772 259.424 72.4217C258.617 72.4536 257.846 72.6937 257.209 73.2933C256.818 73.6614 256.63 74.1849 256.63 74.7081C256.63 75.2417 256.825 75.7784 257.212 76.1551ZM230.122 82.9764C230.171 83.0559 230.238 83.1109 230.313 83.1438C230.392 83.1785 230.479 83.1884 230.563 83.1741C230.647 83.1601 230.727 83.1221 230.79 83.0642C230.85 83.0085 230.896 82.9347 230.917 82.8446C231.425 80.6151 232.41 78.9564 234.514 77.8867C235.549 77.3606 236.739 77.0262 237.865 76.7597C238.193 76.6822 238.539 76.632 238.887 76.5812C239.979 76.4218 241.078 76.2392 241.79 75.3567C242.219 74.8252 242.399 74.1454 242.297 73.5237C242.201 72.9383 241.859 72.4015 241.237 72.0799C239.689 71.2795 237.765 72.0649 236.202 72.7339C236.086 72.7836 235.972 72.8323 235.861 72.8793C234.332 73.5246 232.938 74.3764 231.792 75.5946C230.882 76.561 230.04 77.9896 229.7 79.4593C229.418 80.682 229.484 81.9304 230.122 82.9764Z" fill="#262626"/>
<path fill-rule="evenodd" clip-rule="evenodd" d="M224.824 94.2436C227.491 97.0755 231.942 97.8882 235.49 96.3694C244.6 92.4576 240.141 80.2564 233.115 76.9798C232.238 76.755 231.066 76.2215 229.997 76.1005C229.9 76.0518 229.69 76.1929 229.435 76.0595C221.688 76.9484 219.924 89.3081 224.824 94.2436ZM254.206 94.9685C257.197 99.0455 262.757 100.303 267.3 98.4081C276.274 94.7754 273.091 83.956 266.951 79.7144C253.98 74.705 248.624 87.4511 254.206 94.9685ZM273.661 85.9348C273.669 85.9308 273.678 85.9287 273.686 85.9247C273.639 85.9032 273.591 85.8818 273.544 85.8599C273.56 85.9012 273.576 85.9421 273.591 85.9834C273.614 85.9669 273.635 85.9477 273.661 85.9348ZM218.65 81.5277C219.382 81.5293 220.44 81.653 221.046 82.1752C222.541 76.9938 228.059 72.1984 232.857 75.6951C236.636 76.9441 239.44 79.7142 241.034 83.3969C243.907 81.6402 248.425 82.3903 250.917 84.7134C252.549 79.1713 256.565 77.2306 261.345 76.9441C266.563 76.0658 271.763 81.2738 273.386 85.4518C274.735 85.294 276.751 84.8527 278.02 85.7084C286.258 83.4881 300.66 82.2639 302.335 83.4975C303.528 83.9682 304.183 86.8635 302.516 87.0197C301.064 86.8078 302.686 84.8982 301.221 84.6899C293.419 84.1928 285.846 85.8078 278.126 86.4854C277.437 87.4383 275.21 87.757 274.022 87.3742C275.893 94.4614 271.854 99.2832 265.802 100.728C256.431 102.94 248.279 94.324 250.729 85.3621C247.89 83.9106 244.625 83.9729 241.533 84.7375C246.7 104.284 216.071 103.407 220.855 82.8449C217.671 84.4725 216.98 81.8562 218.65 81.5277Z" fill="#262626"/>
<path d="M249.139 157.625C238.539 147.796 233.684 141.914 229.274 131.071C229.127 130.708 228.621 130.677 228.436 131.023L223.702 139.873C223.647 139.977 223.633 140.099 223.664 140.212C226.985 152.429 230.089 159.305 236.137 171.075C236.296 171.385 236.732 171.414 236.929 171.127C240.924 165.308 243.621 162.188 249.139 157.625Z" fill="white"/>
<path d="M294.457 137.894C294.518 137.793 294.538 137.67 294.512 137.555L292.655 129.301C292.578 128.959 292.157 128.829 291.895 129.063C277.461 141.931 267.921 148.228 249.139 157.625C256.319 162.02 259.666 165.302 265.043 171.416C265.211 171.608 265.509 171.625 265.7 171.455C279.305 159.333 285.961 152.008 294.457 137.894Z" fill="white"/>
<path d="M249.139 157.625C267.921 148.228 277.461 141.931 291.895 129.063C292.157 128.829 292.578 128.959 292.655 129.301L294.512 137.555C294.538 137.67 294.518 137.793 294.457 137.894C285.961 152.008 279.305 159.333 265.7 171.455C265.509 171.625 265.211 171.608 265.043 171.416C259.666 165.302 256.319 162.02 249.139 157.625ZM249.139 157.625C238.539 147.796 233.684 141.914 229.274 131.071C229.127 130.708 228.621 130.677 228.436 131.023L223.702 139.873C223.647 139.977 223.633 140.099 223.664 140.212C226.985 152.429 230.089 159.305 236.137 171.075C236.296 171.385 236.732 171.414 236.929 171.127C240.924 165.308 243.621 162.188 249.139 157.625Z" stroke="#262626" stroke-width="2.98924"/>
<path d="M228.729 131.359C228.547 131.068 228.737 130.686 229.079 130.656L240.819 129.636C241.157 129.606 241.41 129.941 241.288 130.258L236.592 142.508C236.456 142.863 235.975 142.909 235.773 142.588L228.729 131.359Z" fill="white"/>
<path d="M292.159 129.75C292.504 129.494 292.341 128.947 291.912 128.922L278.489 128.12C278.153 128.1 277.91 128.436 278.034 128.749L281.34 137.064C281.452 137.344 281.799 137.443 282.041 137.263L292.159 129.75Z" fill="white"/>
<path d="M228.729 131.359C228.547 131.068 228.737 130.686 229.079 130.656L240.819 129.636C241.157 129.606 241.41 129.941 241.288 130.258L236.592 142.508C236.456 142.863 235.975 142.909 235.773 142.588L228.729 131.359Z" stroke="#262626" stroke-width="2.98924"/>
<path d="M292.159 129.75C292.504 129.494 292.341 128.947 291.912 128.922L278.489 128.12C278.153 128.1 277.91 128.436 278.034 128.749L281.34 137.064C281.452 137.344 281.799 137.443 282.041 137.263L292.159 129.75Z" stroke="#262626" stroke-width="2.98924"/>
<path d="M249.369 169.467C250.321 169.467 251.094 168.694 251.094 167.742C251.094 166.79 250.321 166.017 249.369 166.017C248.417 166.017 247.644 166.79 247.644 167.742C247.644 168.694 248.417 169.467 249.369 169.467Z" fill="#262626"/>
<path d="M249.369 177.055C250.321 177.055 251.094 176.282 251.094 175.33C251.094 174.378 250.321 173.605 249.369 173.605C248.417 173.605 247.644 174.378 247.644 175.33C247.644 176.282 248.417 177.055 249.369 177.055Z" fill="#262626"/>
</svg>
